<?xml version="1.0" encoding="UTF-8"?>
<svg id="Layer_2" data-name="Layer 2" xmlns="http://www.w3.org/2000/svg" viewBox="0 0 1077.43 1078.27">
  <g id="Layer_1-2" data-name="Layer 1">
    <g>
      <g>
        <g>
          <rect fill="currentColor" x="107.41" y="312.28" width="5.78" height="3.86" transform="translate(-91.55 49.35) rotate(-17.97)"/>
          <path fill="currentColor" d="M933.99,180.65l-9.39-6.93,2.29-3.1,9.39,6.93-2.29,3.1ZM915.21,166.8l-9.39-6.93,2.29-3.1,9.39,6.93-2.29,3.1ZM896.44,152.94l-9.39-6.93,2.29-3.1,9.39,6.93-2.29,3.1ZM878.17,141.25l-11.66-.21.07-3.85,11.66.21-.07,3.85ZM854.84,140.83l-11.67-.21.07-3.86,11.67.21-.07,3.86ZM831.51,140.41l-11.67-.21.07-3.85,11.66.21-.07,3.85ZM808.18,139.98l-11.66-.21.07-3.85,11.66.21-.07,3.85ZM784.86,139.56l-11.66-.21.07-3.86,11.66.21-.07,3.85ZM761.53,139.14l-11.66-.21.07-3.85,11.66.21-.07,3.86ZM738.2,138.72l-11.67-.21.07-3.86,11.67.21-.07,3.86ZM714.87,138.29l-11.66-.21.07-3.85,11.66.21-.07,3.85ZM691.54,137.87l-11.67-.21.07-3.85,11.67.21-.07,3.85ZM668.21,137.45l-6.3-.11-4.49,1.46-1.19-3.67,5.1-1.65,6.95.13-.07,3.85ZM646.32,142.39l-11.1,3.6-1.19-3.67,11.1-3.6,1.19,3.67ZM624.13,149.59l-11.1,3.6-1.19-3.67,11.1-3.6,1.19,3.67ZM601.93,156.79l-11.1,3.6-1.19-3.67,11.1-3.6,1.19,3.67ZM579.74,163.99l-11.1,3.6-1.19-3.67,11.1-3.6,1.19,3.67ZM557.54,171.18l-11.1,3.6-1.19-3.67,11.1-3.6,1.19,3.67ZM535.35,178.38l-11.1,3.6-1.19-3.67,11.1-3.6,1.19,3.67ZM513.15,185.58l-11.1,3.6-1.19-3.67,11.1-3.6,1.19,3.67ZM490.96,192.78l-11.1,3.6-1.19-3.67,11.1-3.6,1.19,3.67ZM468.76,199.98l-11.1,3.6-1.19-3.67,11.1-3.6,1.19,3.67ZM446.57,207.18l-11.1,3.6-1.19-3.67,11.1-3.6,1.19,3.67ZM424.38,214.37l-11.1,3.6-1.19-3.67,11.1-3.6,1.19,3.67ZM402.18,221.57l-11.1,3.6-1.19-3.67,11.1-3.6,1.19,3.67ZM379.99,228.77l-11.1,3.6-1.19-3.67,11.1-3.6,1.19,3.67ZM357.79,235.97l-11.1,3.6-1.19-3.67,11.1-3.6,1.19,3.67ZM335.6,243.17l-11.1,3.6-1.19-3.67,11.1-3.6,1.19,3.67ZM313.4,250.37l-11.1,3.6-1.19-3.67,11.1-3.6,1.19,3.67ZM291.21,257.56l-11.1,3.6-1.19-3.67,11.1-3.6,1.19,3.67ZM269.01,264.76l-11.1,3.6-1.19-3.67,11.1-3.6,1.19,3.67ZM246.82,271.96l-11.1,3.6-1.19-3.67,11.1-3.6,1.19,3.67ZM224.62,279.16l-11.1,3.6-1.19-3.67,11.1-3.6,1.19,3.67ZM202.43,286.36l-11.1,3.6-1.19-3.67,11.1-3.6,1.19,3.67ZM180.23,293.56l-11.1,3.6-1.19-3.67,11.1-3.6,1.19,3.67ZM158.04,300.75l-11.1,3.6-1.19-3.67,11.1-3.6,1.19,3.67ZM135.84,307.95l-11.1,3.6-1.19-3.67,11.1-3.6,1.19,3.67Z"/>
          <rect fill="currentColor" x="944.92" y="184.85" width="3.86" height="5.78" transform="translate(233.63 838.2) rotate(-53.58)"/>
        </g>
        <circle fill="currentColor" cx="662.25" cy="138.29" r="12.55"/>
        <circle fill="currentColor" cx="104.69" cy="316.94" r="12.55"/>
        <circle fill="currentColor" cx="878.17" cy="141.25" r="12.55"/>
        <circle fill="currentColor" cx="950.32" cy="187.91" r="12.55"/>
      </g>
      <g>
        <circle fill="currentColor" cx="173.72" cy="877.41" r="12.55"/>
        <circle fill="currentColor" cx="280.33" cy="727.47" r="12.55"/>
        <circle fill="currentColor" cx="250.54" cy="586.45" r="12.55"/>
        <circle fill="currentColor" cx="120.66" cy="535.09" r="12.55"/>
        <circle fill="currentColor" cx="359.97" cy="336.33" r="12.55"/>
        <circle fill="currentColor" cx="434.85" cy="346.26" r="12.55"/>
        <circle fill="currentColor" cx="461.12" cy="414.85" r="12.55"/>
        <circle fill="currentColor" cx="601.27" cy="422.77" r="12.55"/>
        <circle fill="currentColor" cx="502.94" cy="619.19" r="12.55"/>
        <circle fill="currentColor" cx="515.89" cy="778.21" r="12.55"/>
        <circle fill="currentColor" cx="782.21" cy="661.42" r="12.55"/>
        <circle fill="currentColor" cx="961.13" cy="902.03" r="12.55"/>
        <path fill="currentColor" d="M956.62,898.93l-6.32-8.5,2.83-2.11,6.32,8.5-2.83,2.11ZM943.98,881.93l-6.32-8.5,2.83-2.11,6.32,8.5-2.83,2.11ZM175.16,878.44l-2.88-2.05,6.14-8.63,2.88,2.05-6.14,8.63ZM931.35,864.94l-6.32-8.5,2.83-2.11,6.32,8.5-2.83,2.11ZM187.43,861.18l-2.88-2.05,6.14-8.63,2.88,2.05-6.14,8.63ZM918.71,847.95l-6.32-8.5,2.83-2.11,6.32,8.5-2.83,2.11ZM199.7,843.92l-2.88-2.05,6.14-8.63,2.88,2.05-6.14,8.63ZM906.07,830.95l-6.32-8.5,2.83-2.11,6.32,8.5-2.83,2.11ZM211.97,826.66l-2.88-2.05,6.14-8.63,2.88,2.05-6.14,8.63ZM893.44,813.96l-6.32-8.5,2.83-2.11,6.32,8.5-2.83,2.11ZM224.24,809.4l-2.88-2.05,6.14-8.63,2.88,2.05-6.14,8.63ZM880.8,796.97l-6.32-8.5,2.83-2.11,6.32,8.5-2.83,2.11ZM236.51,792.14l-2.88-2.05,6.14-8.63,2.88,2.05-6.14,8.63ZM868.17,779.97l-6.32-8.5,2.83-2.11,6.32,8.5-2.83,2.11ZM248.79,774.88l-2.88-2.05,6.14-8.63,2.88,2.05-6.14,8.63ZM855.53,762.98l-6.32-8.5,2.83-2.11,6.32,8.5-2.83,2.11ZM261.06,757.62l-2.88-2.05,6.14-8.63,2.88,2.05-6.14,8.63ZM842.89,745.99l-6.32-8.5,2.83-2.11,6.32,8.5-2.83,2.11ZM273.33,740.37l-2.88-2.05,6.14-8.63,2.88,2.05-6.14,8.63ZM830.26,728.99l-6.32-8.5,2.83-2.11,6.32,8.5-2.83,2.11ZM277.24,721.37l-2.19-10.36,3.45-.73,2.19,10.36-3.45.73ZM817.62,712l-6.32-8.5,2.83-2.11,6.32,8.5-2.83,2.11ZM272.86,700.65l-2.19-10.36,3.45-.73,2.19,10.36-3.45.73ZM804.98,695l-6.32-8.5,2.83-2.11,6.32,8.5-2.83,2.11ZM792.35,678.01l-6.32-8.5,2.83-2.11,6.32,8.5-2.83,2.11ZM268.48,679.93l-2.19-10.36,3.45-.73,2.19,10.36-3.45.73ZM779.71,661.04l-6.4-8.44,2.81-2.13,6.4,8.44-2.81,2.13ZM264.11,659.21l-2.19-10.36,3.45-.73,2.19,10.36-3.45.73ZM766.91,644.17l-6.4-8.44,2.81-2.13,6.4,8.44-2.81,2.13ZM259.73,638.49l-2.19-10.36,3.45-.73,2.19,10.36-3.45.73ZM754.12,627.29l-6.4-8.44,2.81-2.13,6.4,8.44-2.81,2.13ZM255.35,617.77l-2.19-10.36,3.45-.73,2.19,10.36-3.45.73ZM741.32,610.42l-6.4-8.44,2.81-2.13,6.4,8.44-2.81,2.13ZM728.53,593.54l-6.4-8.44,2.81-2.13,6.4,8.44-2.81,2.13ZM250.97,597.05l-2.16-10.24,1.58-.33.68-1.72,1,.39,2.36,11.17-3.45.73ZM239.93,584.15l-9.85-3.89,1.3-3.28,9.85,3.89-1.3,3.28ZM715.74,576.67l-6.4-8.44,2.81-2.13,6.4,8.44-2.81,2.13ZM220.24,576.36l-9.85-3.89,1.3-3.28,9.85,3.89-1.3,3.28ZM200.54,568.58l-9.85-3.89,1.3-3.28,9.85,3.89-1.3,3.28ZM702.94,559.79l-6.4-8.44,2.81-2.13,6.4,8.44-2.81,2.13ZM180.85,560.79l-9.85-3.89,1.3-3.28,9.85,3.89-1.3,3.28ZM161.16,553l-9.85-3.89,1.3-3.28,9.85,3.89-1.3,3.28ZM690.15,542.92l-6.4-8.44,2.81-2.13,6.4,8.44-2.81,2.13ZM141.46,545.22l-9.85-3.89,1.3-3.28,9.85,3.89-1.3,3.28ZM121.77,537.43l-4.53-1.79,8.98-7.46,2.26,2.72-6.14,5.1-.57,1.43ZM677.35,526.04l-6.4-8.44,2.81-2.13,6.4,8.44-2.81,2.13ZM136.62,524.13l-2.26-2.72,8.15-6.77,2.26,2.72-8.15,6.77ZM664.56,509.17l-6.4-8.44,2.81-2.13,6.4,8.44-2.81,2.13ZM152.92,510.6l-2.26-2.72,8.15-6.77,2.26,2.72-8.15,6.77ZM169.21,497.07l-2.26-2.72,8.15-6.77,2.26,2.72-8.15,6.77ZM651.76,492.29l-6.4-8.44,2.81-2.13,6.4,8.44-2.81,2.13ZM185.5,483.54l-2.26-2.72,8.15-6.77,2.26,2.72-8.15,6.77ZM638.97,475.42l-6.4-8.44,2.81-2.13,6.4,8.44-2.81,2.13ZM201.79,470.01l-2.26-2.72,8.15-6.77,2.26,2.72-8.15,6.77ZM626.17,458.54l-6.4-8.44,2.81-2.13,6.4,8.44-2.81,2.13ZM218.08,456.48l-2.26-2.72,8.15-6.77,2.26,2.72-8.15,6.77ZM613.38,441.67l-6.4-8.44,2.81-2.13,6.4,8.44-2.81,2.13ZM234.37,442.95l-2.26-2.72,8.15-6.77,2.26,2.72-8.15,6.77ZM250.66,429.42l-2.26-2.72,8.15-6.77,2.26,2.72-8.15,6.77ZM600.59,424.79l-.23-.3-8.56-.48.2-3.52,10.19.58,1.22,1.6-2.22,1.68v.19s-.24-.01-.24-.01l-.36.27ZM581.22,423.41l-10.57-.6.2-3.52,10.57.6-.2,3.52ZM560.08,422.21l-10.57-.6.2-3.52,10.57.6-.2,3.52ZM538.94,421.02l-10.57-.6.2-3.52,10.57.6-.2,3.52ZM517.79,419.82l-10.57-.6.2-3.52,10.57.6-.2,3.52ZM496.65,418.63l-10.57-.6.2-3.52,10.57.6-.2,3.52ZM475.51,417.43l-10.57-.6.2-3.52,10.57.6-.2,3.52ZM266.95,415.88l-2.26-2.72,8.15-6.76,2.26,2.72-8.15,6.76ZM457.09,409.25l-3.79-9.89,3.3-1.26,3.79,9.89-3.3,1.26ZM283.24,402.35l-2.26-2.72,8.15-6.77,2.26,2.72-8.15,6.77ZM449.51,389.48l-3.79-9.89,3.3-1.26,3.79,9.89-3.3,1.26ZM299.53,388.82l-2.26-2.72,8.15-6.76,2.26,2.72-8.15,6.76ZM315.82,375.29l-2.26-2.71,8.15-6.77,2.26,2.71-8.15,6.77ZM441.94,369.7l-3.79-9.89,3.3-1.26,3.79,9.89-3.3,1.26ZM332.11,361.76l-2.26-2.72,8.15-6.76,2.26,2.72-8.15,6.76ZM434.37,349.93l-.79-2.06-6.23-.83.46-3.5,8.31,1.1,1.54,4.02-3.3,1.26ZM348.4,348.23l-2.26-2.71,8.15-6.77,2.26,2.71-8.15,6.77ZM416.85,345.65l-10.5-1.39.46-3.5,10.5,1.39-.46,3.5ZM395.86,342.87l-10.5-1.39.46-3.5,10.5,1.39-.46,3.5ZM374.87,340.08l-10.5-1.39.46-3.5,10.5,1.39-.46,3.5Z"/>
        <path fill="currentColor" d="M514.13,778.36l-.86-10.55,3.52-.29.86,10.55-3.52.29ZM512.41,757.25l-.86-10.55,3.52-.29.86,10.55-3.52.29ZM510.69,736.14l-.86-10.55,3.52-.29.86,10.55-3.52.29ZM508.98,715.03l-.86-10.55,3.52-.29.86,10.55-3.52.29ZM507.26,693.93l-.86-10.55,3.52-.29.86,10.55-3.52.29ZM505.54,672.82l-.86-10.55,3.52-.29.86,10.55-3.52.29ZM503.82,651.71l-.86-10.55,3.52-.29.86,10.55-3.52.29ZM502.1,630.61l-.86-10.55,3.52-.29.86,10.55-3.52.29ZM508.94,611.16l-3.16-1.58,4.74-9.47,3.16,1.58-4.74,9.47ZM518.42,592.22l-3.16-1.58,4.74-9.47,3.16,1.58-4.74,9.47ZM527.9,573.28l-3.16-1.58,4.74-9.47,3.16,1.58-4.74,9.47ZM537.37,554.35l-3.16-1.58,4.74-9.47,3.16,1.58-4.74,9.47ZM546.85,535.41l-3.16-1.58,4.74-9.47,3.16,1.58-4.74,9.47ZM556.33,516.48l-3.16-1.58,4.74-9.47,3.16,1.58-4.74,9.47ZM565.81,497.54l-3.16-1.58,4.74-9.47,3.16,1.58-4.74,9.47ZM575.29,478.6l-3.16-1.58,4.74-9.47,3.16,1.58-4.74,9.47ZM584.77,459.67l-3.16-1.58,4.74-9.47,3.16,1.58-4.74,9.47ZM594.25,440.73l-3.16-1.58,4.74-9.47,3.16,1.58-4.74,9.47Z"/>
      </g>
      <path fill="currentColor" d="M139.07,437.52c10.19-3.52,20.62-6.4,31.07-8.89,73.37-17.15,149.27-17.98,223.8-4.55,86.57,15.62,169.57,52.44,241.59,103.5,0,0-77.56,15.59-77.56,15.59.85-1.5,1.72-2.69,2.56-4.03,23.19-34.73,49.38-67.4,77.52-98.17,71.66-76.57,165.53-154.11,276.26-151.7,21.7.78,43.01,5.18,62.73,12.65,8.51,3.51,5.35,16.27-4.16,14.84-152.19-28.21-267.63,148.16-322.33,267.96-.58,1.32-1.94,4.42-2.38,5.75,0,0-10.85,12.71-10.85,12.71-16.36,19.16-45.15,21.44-64.31,5.08-27.91-27.29-58.01-52.48-91.24-73.63-81.75-52.83-179.71-81.56-277.63-81.21-18.65.11-37.39,1.14-55.84,3.9,0,0-3.42.55-3.42.55-12.85,2.57-18.56-15.4-5.8-20.35h0Z"/>
    </g>
  </g>
</svg>